<svg width="250" height="46" viewBox="0 0 250 46" fill="none" xmlns="http://www.w3.org/2000/svg">
<path d="M60.497 14.0356C51.7496 14.0356 44.6572 21.1056 44.6572 29.8254C44.6572 38.5453 51.7496 45.6152 60.497 45.6152C69.2444 45.6152 76.3367 38.5453 76.3367 29.8254C76.3367 21.1056 69.2444 14.0356 60.497 14.0356ZM60.497 44.963C55.7498 44.963 51.9019 38.1849 51.9019 29.8254C51.9019 21.466 55.7498 14.6878 60.497 14.6878C65.2441 14.6878 69.092 21.463 69.092 29.8254C69.092 38.1879 65.2441 44.963 60.497 44.963Z" fill="#6E6E70"/>
<path d="M17.2797 0V5.53328C15.4663 4.68452 13.6529 4.23483 11.8962 4.23483C8.66675 4.23483 6.79658 5.92936 6.79658 8.86575C6.79658 10.3905 7.70179 11.8587 8.78028 12.9874H16.9959V15.0214H9.97229V45.5378H2.77539V15.0214H0V14.5688L2.77539 12.9874C5.77784 4.29142 10.0858 0.845775 17.2797 0Z" fill="#6E6E70"/>
<path d="M27.7001 14.0356C18.9527 14.0356 11.8604 21.1056 11.8604 29.8254C11.8604 38.5453 18.9527 45.6152 27.7001 45.6152C36.4475 45.6152 43.5399 38.5453 43.5399 29.8254C43.5399 21.1056 36.4475 14.0356 27.7001 14.0356ZM27.7001 44.963C22.953 44.963 19.1051 38.1849 19.1051 29.8254C19.1051 21.466 22.953 14.6878 27.7001 14.6878C32.4473 14.6878 36.2952 21.463 36.2952 29.8254C36.2952 38.1879 32.4473 44.963 27.7001 44.963Z" fill="#6E6E70"/>
<path d="M99.8604 1.15015V24.2988C98.2979 18.158 94.0228 13.7504 88.9888 13.7504C82.6344 13.7504 77.481 20.7817 77.481 29.4568C77.481 38.132 82.6344 45.1632 88.9888 45.1632C94.0198 45.1632 98.2949 40.7557 99.8604 34.6148V44.9339H107.018V1.15015H99.8604ZM91.8598 41.9856C87.6893 41.9856 84.3074 36.3749 84.3074 29.4538C84.3074 22.5328 87.6893 16.9221 91.8598 16.9221C96.0304 16.9221 99.4122 22.5328 99.4122 29.4538C99.4122 36.3749 96.0304 41.9856 91.8598 41.9856Z" fill="#6E6E70"/>
<path d="M131.169 36.3297V14.7565H128.959V14.3038L137.853 3.63037H138.307V12.7225H144.822V14.7565H138.307V35.877C138.307 38.4173 138.874 39.8855 140.461 39.8855C143.066 39.8855 145.049 35.6507 146.182 31.6958H146.973C145.33 38.5305 142.441 45.4754 136.888 45.4754C132.639 45.4754 131.167 41.6932 131.167 36.3267" fill="#38383A"/>
<path d="M165.415 15.0096C157.286 11.7873 148.076 15.7481 144.843 23.8515C141.611 31.9548 145.584 41.1363 153.713 44.3586C161.842 47.5808 171.053 43.62 174.285 35.5166C177.518 27.4133 173.544 18.2318 165.415 15.0096ZM153.958 43.751C149.546 42.0029 148.482 34.2897 151.577 26.5198C154.675 18.75 160.761 13.869 165.173 15.6171C169.586 17.3652 170.649 25.0785 167.554 32.8483C164.456 40.6181 158.371 45.4992 153.958 43.751Z" fill="#38383A"/>
<path d="M201.227 20.6917H193.937V45.2519H201.227V20.6917Z" fill="#38383A"/>
<path d="M109.844 42.9347V34.5276L110.541 34.477C112.557 42.1813 116.474 44.8109 120.226 44.5399C122.529 44.3731 124.471 42.5297 124.298 40.1234C123.805 33.3364 111.32 31.0015 110.675 22.1328C110.352 17.6985 113.397 14.363 119.079 13.952C121.866 13.7495 124.758 14.2409 127.038 15.2028V23.5385L126.288 23.5921C124.552 18.2375 122.422 14.7293 118.67 15.0003C116.151 15.182 114.992 16.6621 115.129 18.9076C115.572 26.2366 128.218 28.3183 128.836 36.8148C129.138 40.9841 126.091 45.1325 119.658 45.6001C116.979 45.7937 112.091 44.1647 109.844 42.9317" fill="#38383A"/>
<path d="M231.875 35.1828C233.943 42.3421 237.731 44.802 241.367 44.5399C243.67 44.3731 245.615 42.5297 245.439 40.1234C244.946 33.3364 232.461 31.0015 231.816 22.1328C231.493 17.6985 234.537 14.363 240.219 13.952C243.007 13.7495 245.899 14.2409 248.178 15.2028V23.5385L247.431 23.5921C245.696 18.2375 243.565 14.7293 239.813 15.0003C237.295 15.182 236.136 16.6621 236.273 18.9076C236.715 26.2366 249.361 28.3183 249.98 36.8148C250.281 40.9841 247.234 45.1325 240.802 45.6001C238.122 45.7937 233.235 44.1647 230.988 42.9317V35.2036" fill="#38383A"/>
<path d="M220.027 40.871C218.476 40.871 217.036 40.597 215.776 40.0014C212.543 38.8191 210.108 33.6551 210.108 27.4666C210.108 27.3356 210.108 27.2046 210.114 27.0735H229.984C229.93 26.6715 229.859 26.2784 229.778 25.8853C229.748 25.7393 229.715 25.5934 229.679 25.4475C228.147 18.9344 223.226 14.1218 217.338 13.9104C209.783 14.1516 203.909 20.6498 203.706 30.1707V30.1916C203.888 38.4498 209.343 45.1356 216.188 45.5912C216.233 45.5972 216.275 45.6002 216.319 45.6002C216.439 45.6091 216.558 45.6121 216.678 45.6121C216.779 45.6121 216.881 45.618 216.986 45.618H217.039C222.716 45.5644 227.54 41.2283 229.378 35.1769H228.222C226.471 38.8042 223.755 40.871 220.024 40.871M214.754 15.456C214.832 15.4024 214.912 15.3518 214.993 15.3071C215.065 15.2625 215.139 15.2208 215.214 15.182C215.292 15.1374 215.372 15.0987 215.453 15.0659C215.534 15.0272 215.614 14.9944 215.695 14.9617C215.743 14.9408 215.791 14.9229 215.838 14.9081C215.934 14.8723 216.03 14.8425 216.128 14.8187C216.328 14.7651 216.534 14.7264 216.738 14.6996C216.782 14.6996 216.827 14.6907 216.872 14.6907C216.914 14.6847 216.956 14.6817 216.997 14.6817C217.057 14.6817 217.12 14.6758 217.18 14.6758H217.189C217.248 14.6758 217.308 14.6758 217.368 14.6817C217.407 14.6817 217.446 14.6817 217.487 14.6907C217.535 14.6907 217.589 14.6996 217.637 14.7026C217.688 14.7085 217.738 14.7145 217.786 14.7234C217.837 14.7324 217.891 14.7413 217.942 14.7532C221.12 15.3607 223.675 19.7862 224.17 25.4475C224.182 25.5934 224.194 25.7393 224.203 25.8853H210.162C210.491 21.0578 212.307 17.0672 214.76 15.456" fill="#38383A"/>
<path d="M183.738 26.2998V32.6759V45.2612H177.213V13.8752H183.738V26.2998Z" fill="#38383A"/>
<path d="M183.738 26.2995C183.738 26.2995 186.086 10.0184 201.226 10.3936V17.5023C201.226 17.5023 184.204 13.9852 183.738 30.9692V26.2995Z" fill="#38383A"/>
</svg>
